<svg width="20" height="20" viewBox="0 0 20 20" fill="none" xmlns="http://www.w3.org/2000/svg">
<path fill-rule="evenodd" clip-rule="evenodd" d="M14.1356 14.9974C12.8151 16.1216 11.1034 16.8001 9.23329 16.8001C5.05434 16.8001 1.66663 13.4124 1.66663 9.23341C1.66663 5.05446 5.05434 1.66675 9.23329 1.66675C13.4122 1.66675 16.8 5.05446 16.8 9.23341C16.8 11.0922 16.1297 12.7945 15.0177 14.1117L18.6497 17.7437L17.7658 18.6276L14.1356 14.9974ZM15.55 9.23341C15.55 12.722 12.7219 15.5501 9.23329 15.5501C5.74469 15.5501 2.91663 12.722 2.91663 9.23341C2.91663 5.74482 5.74469 2.91675 9.23329 2.91675C12.7219 2.91675 15.55 5.74482 15.55 9.23341Z" fill="black" fill-opacity="0.7"/>
</svg>
